<?xml version="1.0" encoding="utf-8"?>
<!-- Generator: Adobe Illustrator 22.1.0, SVG Export Plug-In . SVG Version: 6.00 Build 0)  -->
<svg version="1.1" id="Layer_1" xmlns="http://www.w3.org/2000/svg" xmlns:xlink="http://www.w3.org/1999/xlink" x="0px" y="0px"
	 viewBox="0 0 32 32" style="enable-background:new 0 0 32 32;" xml:space="preserve">
<style type="text/css">
	.st0{fill:#FFFFFF;}
	.st1{fill:#0EA5D5;}
	.st2{fill:#0572B5;}
	.st3{fill:#AAAAAA;}
	.st4{font-family:'HelveticaNeueLTStd-Md';}
	.st5{font-size:2.132px;}
	.st6{fill:#424242;}
	.st7{font-family:'HelveticaNeueLTStd-Hv';}
	.st8{font-size:3.7431px;}
</style>
<circle class="st0" cx="16" cy="16" r="15.4"/>
<g>
	<path class="st1" d="M26.5,6.7c-5.7,3.1-5.5,3.2-5.7,2.8C20.6,8.9,20.4,9.2,26.5,6.7z M9.5,19.3c1.5-1.3,3.6-1.2,3.4-1.9
		C11.3,18,10.6,17.8,9.5,19.3z M7.9,18.8c1.9-1.3,4.7-0.9,4.5-2C10.3,17.4,9.2,17.3,7.9,18.8z M6.1,17.9C8,16.6,11.9,17.3,12,16
		C9.3,16.8,7.9,16.3,6.1,17.9z M4.4,17c1.9-1.3,7.1-0.4,7.5-2.1C9.2,15.8,6.2,15.3,4.4,17z M3.4,15.8c1.9-1.3,8.4-0.2,8.7-1.9
		C9.4,14.7,5.2,14.1,3.4,15.8z M8.3,13.4c1.9-0.6,3.8,0.4,3.9-0.4C10.6,12.8,9.9,12.3,8.3,13.4z M6.7,12.1c2.3-0.4,5,1.1,5.3,0
		C9.8,11.8,8.6,11.3,6.7,12.1z M5.4,9.9c2.4-0.1,5.6,2.8,6.1,1.5C8.7,11,7.8,9.1,5.4,9.9z M4.8,8.4c3,0.2,5.8,3.5,6.8,2.1
		C8.9,9.6,7.6,8,4.8,8.4z M4.8,6.2c3.3,0.7,5.8,4.6,7.6,3.7C10.3,8.9,7.7,6.2,4.8,6.2z M13.1,20.1c-1.1-1.2,1-2.6,1.3-1.6
		c0.2,0.5-1.2,1.2-0.7,0.3c0-0.3-0.9,0.2-0.4,0.7c0.7,0.5,1.9-0.7,1.5-1.3c-1.1-1.4-3.4,1.2-1.8,2.5c1.2,0.9,1.9-1.6,4.9-3
		c4-2.1,2.6-5.2,2.6-5.2c-0.5-1.2-0.5-0.5-1.9,0c-1.6,0.5-2.5,2.5-1.5,3.4c1.1,0.9,3.2-1.9,1.4-2.2c-0.4,0.2,0.7,0.4,0.1,1.2
		c-1.2,1.3-2.2-0.8-0.2-1.7c1.2-0.5,1.4-0.9,1.5-0.5c1,2.4-2.5,5.1-3.1,3.5c-0.2-0.4-2.6,1.4-1.9,1.5C16.7,17.8,13.9,20.8,13.1,20.1
		z"/>
	<path class="st2" d="M20.6,9c-1.5-1.2-4.6,0.3-3.4,3.2c3,0.4,3.6-2.3,3.6-2.3C20.3,9.4,20.6,9,20.6,9z M18.5,10.3
		c-0.1-0.4,0.6-1.1,1.1-0.9C19.8,10,18.8,10.6,18.5,10.3z M19.3,9.6c0.2,0.2-0.2,0.5-0.4,0.3C18.8,9.8,19.2,9.5,19.3,9.6z M12.5,20
		c-0.6,0.5-1.2,1.9-2.5,2C11.4,21.4,12,19.2,12.5,20z M12.7,20.5c-0.5,0.5-1.2,2.8-2.8,3.2C11.5,22.6,12.2,19.7,12.7,20.5z M13,20.9
		c-0.6,0.5-0.9,3.4-2.2,4.3C12.1,23.2,12.3,20.2,13,20.9z M13.3,21c-0.3,0.7-0.2,3.6-1.5,5.6C13,23.3,12.3,20.5,13.3,21z M13.7,21
		c0.1,0.9,0.3,5.1-0.4,6.8C14,24.8,12.6,21.1,13.7,21z M12.4,16.1c1.2,3.9,4.2-1.5,4.6-3.6C13.4,14.6,11.7,12.4,12.4,16.1z
		 M13.7,15.4c-0.4-1.8,0.6-0.8,2.5-1.8C15.9,14.5,14.3,17.3,13.7,15.4z M12,10.8c-0.6,1.1,0.7,1.2,0.8,2.3c1.8,0,2.4-0.1,4.3-0.9
		C13,11.5,13.3,8.9,12,10.8z M13.4,12.7c-0.2-0.5-0.7-0.7-0.4-1.1c0.6-0.9,0.5,0.5,2.6,0.8C14.7,12.7,14.3,12.7,13.4,12.7z"/>
</g>
<text transform="matrix(1 0 0 1 14.4326 23.4658)" class="st3 st4 st5">Lenguaje</text>
<text transform="matrix(1 0 0 1 14.4321 26.7248)" class="st6 st7 st8">Latino</text>
</svg>
