<?xml version="1.0" encoding="utf-8"?>
<!-- Generator: Adobe Illustrator 22.1.0, SVG Export Plug-In . SVG Version: 6.00 Build 0)  -->
<svg version="1.1" id="Layer_1" xmlns="http://www.w3.org/2000/svg" xmlns:xlink="http://www.w3.org/1999/xlink" x="0px" y="0px"
	 viewBox="0 0 1375 274" style="enable-background:new 0 0 1375 274;" xml:space="preserve">
<style type="text/css">
	.st0{fill:#FFFFFF;}
</style>
<path class="st0" d="M970.3,75.6c-12-9.6-36.7,2.4-27.1,25.5c23.9,3.2,28.7-18.3,28.7-18.3C967.9,78.8,970.3,75.6,970.3,75.6z
	 M953.6,85.9c-0.8-3.2,4.8-8.8,8.8-7.2C963.9,83.6,956,88.3,953.6,85.9z M960,80.4c1.6,1.6-1.6,4-3.2,2.4
	C956,82,959.2,79.6,960,80.4z M905.8,163.2c-4.8,4-9.6,15.1-19.9,15.9C897,174.4,901.8,156.9,905.8,163.2z M907.4,167.2
	c-4,4-9.6,22.3-22.3,25.5C897.8,184,903.4,160.8,907.4,167.2z M909.8,170.4c-4.8,4-7.2,27.1-17.5,34.3
	C902.6,188.7,904.2,164.8,909.8,170.4z M912.2,171.2c-2.4,5.6-1.6,28.7-12,44.6C909.8,189.5,904.2,167.2,912.2,171.2z M915.3,171.2
	c0.8,7.2,2.4,40.6-3.2,54.2C917.7,201.5,906.6,172,915.3,171.2z M905,132.2c9.6,31.1,33.5-12,36.7-28.7
	C912.9,120.2,899.4,102.7,905,132.2z M915.3,126.6c-3.2-14.3,4.8-6.4,19.9-14.3C932.9,119.4,920.1,141.7,915.3,126.6z M901.8,89.9
	c-4.8,8.8,5.6,9.6,6.4,18.3c14.3,0,19.1-0.8,34.3-7.2C909.8,95.5,912.2,74.8,901.8,89.9z M912.9,105.1c-1.6-4-5.6-5.6-3.2-8.8
	c4.8-7.2,4,4,20.7,6.4C923.3,105.1,920.1,105.1,912.9,105.1z M1027.2,130.7h19.4v57.9h34.8v16.7h-54.2V130.7z M1089.6,167.8
	c0.3-7.1,3.7-11.7,8.5-14.5c4.8-2.7,11.1-3.8,17.2-3.8c12.9,0,25.3,2.8,25.3,18.2v23.7c0,4.6,0,9.6,2.1,13.9h-17.9
	c-0.6-1.7-0.8-3.3-1-5.1c-4.6,4.8-11.4,6.7-17.9,6.7c-10.3,0-18.5-5.2-18.5-16.4c0-17.7,19.2-16.3,31.6-18.8c3-0.6,4.7-1.7,4.7-5
	c0-4.1-4.9-5.6-8.6-5.6c-4.9,0-8,2.2-8.9,6.8H1089.6z M1112.6,195.9c8.5,0,11.3-4.8,10.9-16c-2.5,1.6-7.1,1.9-11,2.9
	c-4,0.9-7.3,2.6-7.3,6.9C1105.2,194.1,1108.6,195.9,1112.6,195.9z M1185,162.6h-11v24.7c0,4.3,2.5,5.2,6.4,5.2c1.5,0,3-0.2,4.6-0.2
	v13.1c-3.2,0.1-6.5,0.5-9.7,0.5c-15.2,0-19-4.4-19-19.1v-24.1h-9v-11.5h9v-16.4h17.8v16.4h11V162.6z M1211.3,144.3h-17.8v-13.6h17.8
	V144.3z M1193.6,151.1h17.8v54.2h-17.8V151.1z M1223.9,151.1h17.2v7.4h0.2c3.2-5.5,10.6-9,17-9c18.1,0,19.5,13.2,19.5,21v34.8h-17.8
	v-26.2c0-7.4,0.8-14.9-8.9-14.9c-6.7,0-9.6,5.6-9.6,11.6v29.6h-17.8V151.1z M1315.6,149.5c16.8,0,28.6,12.4,28.6,28.7
	s-11.8,28.6-28.6,28.6c-16.8,0-28.5-12.3-28.5-28.6S1298.8,149.5,1315.6,149.5z M1315.6,193.3c8.3,0,10.9-8.2,10.9-15
	s-2.6-15.2-10.9-15.2c-8.3,0-10.8,8.3-10.8,15.2S1307.4,193.3,1315.6,193.3z M27.2,39.3h34.4l33.3,154.2h0.5l33.3-154.2h34.4v194.5
	h-20.5v-170h-0.5l-36.8,170H84.9l-36.8-170h-0.5v170H27.2V39.3z M223.1,39.3h27.5l44.7,194.5h-21.4L262,180.4h-53.1l-12.3,53.4
	h-21.4L223.1,39.3z M213.1,160.8h44.7l-21.2-94h-0.5L213.1,160.8z M306.9,39.3h26.5l54.9,162.4h0.5V39.3h20.5v194.5h-28.2
	L327.8,76.3h-0.5v157.5h-20.5V39.3z M434.4,39.3h20.5V176c0,28.6,7.9,42,28.2,42c21.9,0,28.4-14.7,28.4-42V39.3h20.5V176
	c0,37.3-16.3,61.6-48.9,61.6c-33.3,0-48.6-21.5-48.6-61.6V39.3z M589.7,39.3h27.5l44.7,194.5h-21.4l-11.9-53.4h-53.1l-12.3,53.4
	h-21.4L589.7,39.3z M579.6,160.8h44.7l-21.2-94h-0.5L579.6,160.8z M673.4,39.3h20.5v173.3h67.5v21.2h-88V39.3z"/>
<path class="st0" d="M1017.3,57.3c-45.4,24.7-43.8,25.5-45.4,22.3C970.3,74.8,968.7,77.2,1017.3,57.3z M881.9,157.7
	c12-10.4,28.7-9.6,27.1-15.1C896.2,147.3,890.6,145.7,881.9,157.7z M869.1,153.7c15.1-10.4,37.4-7.2,35.9-15.9
	C888.2,142.5,879.5,141.7,869.1,153.7z M854.8,146.5c15.1-10.4,46.2-4.8,47-15.1C880.3,137.7,869.1,133.8,854.8,146.5z M841.2,139.3
	c15.1-10.4,56.6-3.2,59.8-16.7C879.5,129.8,855.6,125.8,841.2,139.3z M833.3,129.8c15.1-10.4,66.9-1.6,69.3-15.1
	C881.1,121,847.6,116.2,833.3,129.8z M872.3,110.6c15.1-4.8,30.3,3.2,31.1-3.2C890.6,105.9,885.1,101.9,872.3,110.6z M859.6,100.3
	c18.3-3.2,39.8,8.8,42.2,0C884.3,97.9,874.7,93.9,859.6,100.3z M849.2,82.8c19.1-0.8,44.6,22.3,48.6,12
	C875.5,91.5,868.3,76.4,849.2,82.8z M844.4,70.8c23.9,1.6,46.2,27.9,54.2,16.7C877.1,80.4,866.7,67.6,844.4,70.8z M844.4,53.3
	c26.3,5.6,46.2,36.7,60.6,29.5C888.2,74.8,867.5,53.3,844.4,53.3z M910.6,164c-8.8-9.6,8-20.7,10.4-12.7c1.6,4-9.6,9.6-5.6,2.4
	c0-2.4-7.2,1.6-3.2,5.6c5.6,4,15.1-5.6,12-10.4c-8.8-11.2-27.1,9.6-14.3,19.9c9.6,7.2,15.1-12.7,39-23.9
	c31.9-16.7,20.7-41.4,20.7-41.4c-4-9.6-4-4-15.1,0c-12.7,4-19.9,19.9-12,27.1c8.8,7.2,25.5-15.1,11.2-17.5c-3.2,1.6,5.6,3.2,0.8,9.6
	c-9.6,10.4-17.5-6.4-1.6-13.5c9.6-4,11.2-7.2,12-4c8,19.1-19.9,40.6-24.7,27.9c-1.6-3.2-20.7,11.2-15.1,12
	C939.2,145.7,916.9,169.6,910.6,164z M1027.3,64.3h7.5v36.2h21.7v6.4h-29.1V64.3z M1065.9,93.2c0,4.8,2.6,9.1,8.3,9.1
	c3.9,0,6.3-1.7,7.5-5.1h6.4c-1.5,6.7-7.2,10.5-14,10.5c-9.7,0-15.1-6.7-15.1-16.2c0-8.8,5.7-16.3,14.9-16.3c9.7,0,15.7,8.8,14.6,18
	H1065.9z M1081.8,88.8c-0.2-4.3-3.2-8.2-7.8-8.2c-4.7,0-7.9,3.6-8.1,8.2H1081.8z M1093.8,76h6.4v4.5l0.1,0.1c2-3.4,5.6-5.5,9.6-5.5
	c6.7,0,10.9,3.6,10.9,10.5v21.2h-6.8V87.5c-0.1-4.8-2-6.9-6-6.9c-4.5,0-7.5,3.6-7.5,8.1v18.2h-6.8V76z M1156.6,105.3
	c0,9.3-5.4,13.8-15.2,13.8c-6.2,0-13.2-2.4-13.8-9.6h6.8c0.8,3.9,3.9,4.5,7.4,4.5c5.5,0,7.9-2.8,7.9-7.9v-4.7h-0.1
	c-1.9,3.4-5.4,5.4-9.3,5.4c-9.8,0-13.8-7.4-13.8-16.2c0-8.3,5.2-15.5,14-15.5c3.9,0,7.4,1.6,9.1,5.1h0.1V76h6.8V105.3z M1149.8,90.8
	c0-5.3-2.4-10.2-8.3-10.2c-6,0-8.1,5.6-8.1,10.7c0,5.1,2.4,10.2,8.1,10.2C1147.5,101.5,1149.8,96,1149.8,90.8z M1190.6,106.9h-6.7
	v-4.3h-0.1c-1.7,3.1-5.4,5.1-8.8,5.1c-8.1,0-11.5-4.1-11.5-12.1V76h6.8V95c0,5.4,2.2,7.4,5.9,7.4c5.7,0,7.6-3.6,7.6-8.4V76h6.8
	V106.9z M1223.6,100c0,1.7,0.4,2.3,1.6,2.3c0.4,0,1,0,1.7-0.1v4.7c-1,0.4-3.2,0.8-4.3,0.8c-2.7,0-4.7-1-5.3-3.8
	c-2.7,2.6-7,3.8-10.7,3.8c-5.6,0-10.6-3-10.6-9c0-7.7,6.1-9,11.9-9.6c4.9-0.9,9.3-0.4,9.3-4.4c0-3.5-3.6-4.2-6.4-4.2
	c-3.8,0-6.5,1.6-6.8,4.9h-6.8c0.5-7.9,7.2-10.3,14-10.3c6,0,12.4,2.4,12.4,9V100z M1216.8,91.4c-2.1,1.4-5.4,1.3-8.4,1.9
	c-2.9,0.5-5.6,1.6-5.6,5.1c0,3,3.9,3.9,6.3,3.9c3,0,7.6-1.6,7.6-5.8V91.4z M1231.1,76h6.8v33.5c0,6.1-2.4,9.6-8.8,9.6
	c-1.3,0-2.1-0.1-3-0.2v-5.4c0.9,0.1,1.7,0.2,2.3,0.2c2.5,0,2.7-1.5,2.7-4.5V76z M1231.1,64.3h6.8v6.4h-6.8V64.3z M1250.6,93.2
	c0,4.8,2.6,9.1,8.3,9.1c3.9,0,6.3-1.7,7.5-5.1h6.4c-1.5,6.7-7.2,10.5-14,10.5c-9.7,0-15.1-6.7-15.1-16.2c0-8.8,5.7-16.3,14.9-16.3
	c9.7,0,15.7,8.8,14.6,18H1250.6z M1266.5,88.8c-0.2-4.3-3.2-8.2-7.8-8.2c-4.7,0-7.9,3.6-8.1,8.2H1266.5z M799.7,42.3h-4v191.5h4
	V42.3z"/>
</svg>
