<?xml version="1.0" encoding="utf-8"?>
<!-- Generator: Adobe Illustrator 22.1.0, SVG Export Plug-In . SVG Version: 6.00 Build 0)  -->
<svg version="1.1" id="Layer_1" xmlns="http://www.w3.org/2000/svg" xmlns:xlink="http://www.w3.org/1999/xlink" x="0px" y="0px"
	 viewBox="0 0 1375 274" style="enable-background:new 0 0 1375 274;" xml:space="preserve">
<style type="text/css">
	.st0{fill:#FFFFFF;}
	.st1{fill:#0EA5D5;}
	.st2{fill:#0572B5;}
	.st3{font-family:'HelveticaNeueLTStd-Md';}
	.st4{font-size:59.6922px;}
	.st5{font-family:'HelveticaNeueLTStd-Hv';}
	.st6{font-size:104.5006px;}
	.st7{font-family:'HelveticaNeueLTStd-Cn';}
	.st8{font-size:272.4189px;}
	.st9{fill:none;stroke:#0EA5D5;stroke-width:4;stroke-miterlimit:10;}
</style>
<rect class="st0" width="1375" height="274"/>
<g>
	<path class="st1" d="M1017.3,57.3c-45.4,24.7-43.8,25.5-45.4,22.3C970.3,74.8,968.7,77.2,1017.3,57.3z M881.9,157.7
		c12-10.4,28.7-9.6,27.1-15.1C896.2,147.3,890.6,145.7,881.9,157.7z M869.1,153.7c15.1-10.4,37.4-7.2,35.9-15.9
		C888.2,142.5,879.5,141.7,869.1,153.7z M854.8,146.5c15.1-10.4,46.2-4.8,47-15.1C880.3,137.7,869.1,133.8,854.8,146.5z
		 M841.2,139.3c15.1-10.4,56.6-3.2,59.8-16.7C879.5,129.8,855.6,125.8,841.2,139.3z M833.3,129.8c15.1-10.4,66.9-1.6,69.3-15.1
		C881.1,121,847.6,116.2,833.3,129.8z M872.3,110.6c15.1-4.8,30.3,3.2,31.1-3.2C890.6,105.9,885.1,101.9,872.3,110.6z M859.6,100.3
		c18.3-3.2,39.8,8.8,42.2,0C884.3,97.9,874.7,93.9,859.6,100.3z M849.2,82.8c19.1-0.8,44.6,22.3,48.6,12
		C875.5,91.5,868.3,76.4,849.2,82.8z M844.4,70.8c23.9,1.6,46.2,27.9,54.2,16.7C877.1,80.4,866.7,67.6,844.4,70.8z M844.4,53.3
		c26.3,5.6,46.2,36.7,60.6,29.5C888.2,74.8,867.5,53.3,844.4,53.3z M910.6,164c-8.8-9.6,8-20.7,10.4-12.7c1.6,4-9.6,9.6-5.6,2.4
		c0-2.4-7.2,1.6-3.2,5.6c5.6,4,15.1-5.6,12-10.4c-8.8-11.2-27.1,9.6-14.3,19.9c9.6,7.2,15.1-12.7,39-23.9
		c31.9-16.7,20.7-41.4,20.7-41.4c-4-9.6-4-4-15.1,0c-12.7,4-19.9,19.9-12,27.1c8.8,7.2,25.5-15.1,11.2-17.5
		c-3.2,1.6,5.6,3.2,0.8,9.6c-9.6,10.4-17.5-6.4-1.6-13.5c9.6-4,11.2-7.2,12-4c8,19.1-19.9,40.6-24.7,27.9
		c-1.6-3.2-20.7,11.2-15.1,12C939.2,145.7,916.9,169.6,910.6,164z"/>
	<path class="st2" d="M970.3,75.6c-12-9.6-36.7,2.4-27.1,25.5c23.9,3.2,28.7-18.3,28.7-18.3C967.9,78.8,970.3,75.6,970.3,75.6z
		 M953.6,85.9c-0.8-3.2,4.8-8.8,8.8-7.2C963.9,83.6,956,88.3,953.6,85.9z M960,80.4c1.6,1.6-1.6,4-3.2,2.4
		C956,82,959.2,79.6,960,80.4z M905.8,163.2c-4.8,4-9.6,15.1-19.9,15.9C897,174.4,901.8,156.9,905.8,163.2z M907.4,167.2
		c-4,4-9.6,22.3-22.3,25.5C897.8,184,903.4,160.8,907.4,167.2z M909.8,170.4c-4.8,4-7.2,27.1-17.5,34.3
		C902.6,188.7,904.2,164.8,909.8,170.4z M912.2,171.2c-2.4,5.6-1.6,28.7-12,44.6C909.8,189.5,904.2,167.2,912.2,171.2z M915.3,171.2
		c0.8,7.2,2.4,40.6-3.2,54.2C917.7,201.5,906.6,172,915.3,171.2z M905,132.2c9.6,31.1,33.5-12,36.7-28.7
		C912.9,120.2,899.4,102.7,905,132.2z M915.3,126.6c-3.2-14.3,4.8-6.4,19.9-14.3C932.9,119.4,920.1,141.7,915.3,126.6z M901.8,89.9
		c-4.8,8.8,5.6,9.6,6.4,18.3c14.3,0,19.1-0.8,34.3-7.2C909.8,95.5,912.2,74.8,901.8,89.9z M912.9,105.1c-1.6-4-5.6-5.6-3.2-8.8
		c4.8-7.2,4,4,20.7,6.4C923.3,105.1,920.1,105.1,912.9,105.1z"/>
</g>
<text transform="matrix(1 0 0 1 1022.7859 106.9023)" class="st1 st3 st4">Lenguaje</text>
<text transform="matrix(1 0 0 1 1020.5209 205.3065)" class="st2 st5 st6">Latino</text>
<text transform="matrix(0.8543 0 0 1 13.188 233.7832)" class="st2 st7 st8">MANUAL</text>
<line class="st9" x1="797.7" y1="42.3" x2="797.7" y2="233.8"/>
</svg>
